<svg width="62" height="62" viewBox="0 0 62 62" fill="none" xmlns="http://www.w3.org/2000/svg">
<path d="M32.5319 60.083L32.5035 60.0882L32.32 60.1786L32.2684 60.189L32.2322 60.1786L32.0488 60.0882C32.0212 60.0796 32.0006 60.0839 31.9868 60.1011L31.9765 60.127L31.9325 61.2326L31.9455 61.2843L31.9713 61.3179L32.24 61.509L32.2787 61.5194L32.3097 61.509L32.5784 61.3179L32.6094 61.2765L32.6197 61.2326L32.5758 60.1295C32.5689 60.102 32.5543 60.0865 32.5319 60.083ZM33.2165 59.7911L33.1829 59.7963L32.705 60.0365L32.6791 60.0624L32.6714 60.0908L32.7179 61.2016L32.7308 61.2326L32.7515 61.2507L33.2707 61.491C33.3034 61.4996 33.3284 61.4927 33.3456 61.4703L33.356 61.4341L33.2681 59.848C33.2595 59.817 33.2423 59.798 33.2165 59.7911ZM31.3694 59.7963C31.358 59.7894 31.3444 59.7872 31.3314 59.79C31.3184 59.7929 31.307 59.8007 31.2996 59.8118L31.2841 59.848L31.1963 61.4341C31.198 61.4651 31.2127 61.4858 31.2402 61.4961L31.279 61.491L31.7982 61.2507L31.824 61.23L31.8344 61.2016L31.8783 60.0908L31.8705 60.0598L31.8447 60.034L31.3694 59.7963Z" fill="#BD30BD"/>
<path d="M21.6999 16.0167C21.9713 15.8131 22.2801 15.665 22.6087 15.5808C22.9374 15.4966 23.2794 15.478 23.6152 15.526C23.951 15.5739 24.2741 15.6876 24.566 15.8604C24.858 16.0333 25.113 16.2619 25.3165 16.5333C25.5201 16.8047 25.6682 17.1136 25.7524 17.4422C25.8366 17.7708 25.8552 18.1128 25.8072 18.4487C25.7592 18.7845 25.6456 19.1076 25.4727 19.3995C25.2999 19.6914 25.0713 19.9465 24.7999 20.15C20.7595 23.1803 18.4449 26.1278 17.1196 28.7008C18.9392 28.2324 20.8596 28.3426 22.6137 29.0159C24.3679 29.6892 25.8687 30.8923 26.9076 32.4579C27.9464 34.0236 28.4717 35.874 28.4104 37.7519C28.3492 39.6298 27.7044 41.442 26.5657 42.9366C25.427 44.4312 23.8509 45.5339 22.0566 46.0915C20.2623 46.649 18.3388 46.6337 16.5536 46.0477C14.7684 45.4617 13.2101 44.3341 12.0953 42.8216C10.9805 41.3091 10.3646 39.4868 10.3332 37.6082C10.0058 34.4357 10.4563 31.2313 11.6455 28.272C13.1878 24.3815 16.2025 20.1397 21.6999 16.0167ZM44.9499 16.0167C45.2213 15.8131 45.5301 15.665 45.8587 15.5808C46.1874 15.4966 46.5294 15.478 46.8652 15.526C47.201 15.5739 47.5241 15.6876 47.816 15.8604C48.108 16.0333 48.363 16.2619 48.5665 16.5333C48.7701 16.8047 48.9182 17.1136 49.0024 17.4422C49.0866 17.7708 49.1052 18.1128 49.0572 18.4487C49.0093 18.7845 48.8956 19.1076 48.7227 19.3995C48.5499 19.6914 48.3213 19.9465 48.0499 20.15C44.0095 23.1803 41.6949 26.1278 40.3696 28.7008C42.1892 28.2324 44.1096 28.3426 45.8637 29.0159C47.6179 29.6892 49.1187 30.8923 50.1576 32.4579C51.1964 34.0236 51.7217 35.874 51.6605 37.7519C51.5992 39.6298 50.9544 41.442 49.8157 42.9366C48.677 44.4312 47.1009 45.5339 45.3066 46.0915C43.5123 46.649 41.5889 46.6337 39.8036 46.0477C38.0184 45.4617 36.4601 44.3341 35.3453 42.8216C34.2305 41.3091 33.6146 39.4868 33.5832 37.6082C33.2558 34.4357 33.7063 31.2313 34.8955 28.272C36.4404 24.3815 39.4525 20.1397 44.9499 16.0167Z" fill="#BD30BD"/>
</svg>
