<svg width="58" height="85" viewBox="0 0 58 85" fill="none" xmlns="http://www.w3.org/2000/svg">
<rect width="57.019" height="85" rx="28.5095" transform="matrix(-1 0 0 1 57.5098 0)" fill="white"/>
<path d="M12.4393 43.5607C11.8536 42.9749 11.8536 42.0251 12.4393 41.4393L21.9853 31.8934C22.5711 31.3076 23.5208 31.3076 24.1066 31.8934C24.6924 32.4792 24.6924 33.4289 24.1066 34.0147L15.6213 42.5L24.1066 50.9853C24.6924 51.5711 24.6924 52.5208 24.1066 53.1066C23.5208 53.6924 22.5711 53.6924 21.9853 53.1066L12.4393 43.5607ZM44.5 44L13.5 44L13.5 41L44.5 41L44.5 44Z" fill="black"/>
</svg>
